<?xml version="1.0" encoding="UTF-8" standalone="no"?>
<!-- Created with Inkscape (http://www.inkscape.org/) -->

<svg
   width="86.206482mm"
   height="104.77335mm"
   viewBox="0 0 86.206482 104.77335"
   version="1.1"
   id="svg5"
   inkscape:version="1.2 (dc2aedaf03, 2022-05-15)"
   sodipodi:docname="km_logo_workspace.svg"
   xmlns:inkscape="http://www.inkscape.org/namespaces/inkscape"
   xmlns:sodipodi="http://sodipodi.sourceforge.net/DTD/sodipodi-0.dtd"
   xmlns="http://www.w3.org/2000/svg"
   xmlns:svg="http://www.w3.org/2000/svg">
  <sodipodi:namedview
     id="namedview7"
     pagecolor="#ffffff"
     bordercolor="#000000"
     borderopacity="0.25"
     inkscape:showpageshadow="2"
     inkscape:pageopacity="0.0"
     inkscape:pagecheckerboard="0"
     inkscape:deskcolor="#d1d1d1"
     inkscape:document-units="mm"
     showgrid="false"
     inkscape:zoom="0.71624578"
     inkscape:cx="691.80163"
     inkscape:cy="524.26138"
     inkscape:window-width="1920"
     inkscape:window-height="991"
     inkscape:window-x="-9"
     inkscape:window-y="-9"
     inkscape:window-maximized="1"
     inkscape:current-layer="layer1" />
  <defs
     id="defs2" />
  <g
     inkscape:label="Layer 1"
     inkscape:groupmode="layer"
     id="layer1"
     transform="translate(-49.745473,-108.26503)">
    <g
       id="g191"
       inkscape:export-filename="km-icon.png"
       inkscape:export-xdpi="96"
       inkscape:export-ydpi="96">
      <path
         id="text186-3-4-9-3"
         style="font-size:18.5565px;font-family:'Roboto Condensed';-inkscape-font-specification:'Roboto Condensed, ';fill:#f9f9f9;fill-opacity:1;stroke-width:10.3949"
         d="m 69.554667,111.77582 -2.247513,0.74683 h -4.241436 c 0,0.33274 -0.164086,1.04138 -0.496763,2.1225 -0.332609,1.08105 -0.500191,1.82821 -0.500191,2.24404 l -2.118987,8.23275 c -0.249457,0.41543 -0.584621,0.91508 -1.000436,1.49715 -0.415762,0.58213 -0.705592,1.49687 -0.87191,2.74429 0,0.24939 -0.167582,0.95474 -0.500191,2.11894 -0.33261,1.08112 -0.496764,1.74795 -0.496764,1.99741 l -0.500191,1.12205 v 2.74423 c 0,0.4161 -0.206032,1.41433 -0.621794,2.99436 -0.332609,1.58003 -0.500191,2.8265 -0.500191,3.74125 l -0.62529,2.24746 c 0,0.16604 -0.03832,0.58214 -0.121603,1.24709 0,0.58213 -0.04168,1.28741 -0.125031,2.119 -0.08315,0.74844 -0.166976,1.45715 -0.250129,2.12244 v 1.24708 l -0.250129,1.49715 c -0.166305,0.99796 -0.375765,1.95458 -0.62529,2.86933 -0.166304,0.91474 -0.246633,1.86793 -0.246633,2.86583 v 2.7443 c 0,0.41609 -0.125704,1.08259 -0.375161,1.9974 -0.249457,0.83159 -0.37516,1.53681 -0.37516,2.11894 0,0.83159 0.293285,1.28896 0.875385,1.37211 l 0.246634,0.50013 v 2.24404 l -0.246634,1.62224 c 0.415829,0.41543 1.121071,0.91501 2.11898,1.49715 1.081068,0.58213 1.747927,1.08138 1.997404,1.49721 0.166305,-0.24939 0.330392,-0.53911 0.496764,-0.87192 0.249457,-0.24939 0.542742,-0.3751 0.875385,-0.3751 0.249457,0.33275 0.497368,0.62247 0.746852,0.87193 0.332609,0.24939 0.622466,0.37509 0.87191,0.37509 v -0.25006 c 0,-0.66549 -0.122208,-1.12266 -0.371665,-1.37212 -0.249457,-0.16603 -0.458985,-0.3724 -0.62529,-0.62179 0.498982,0 0.872542,0.08 1.122019,0.2467 0.249457,0.16603 0.458985,0.33409 0.62529,0.50012 0.166305,0.24939 0.330391,0.45912 0.496763,0.62516 0.249457,0.24939 0.626567,0.45576 1.125494,0.62179 0.166305,-0.0833 0.288513,-0.16671 0.371665,-0.25006 0.166305,-0.0833 0.292008,-0.12503 0.37516,-0.12503 h 0.125031 c 0,0.0834 -0.04168,0.12503 -0.125031,0.12503 v 0.12503 c 0,0.0834 0.167582,0.20906 0.500192,0.37509 l 0.621794,-0.62515 c -0.166305,-0.16604 -0.25013,-0.33073 -0.25013,-0.49676 v -0.12503 c 0.08315,-0.66549 0.334559,-1.33212 0.750328,-1.99741 0.415761,-0.58213 0.705591,-0.9138 0.87191,-0.99695 l -0.371665,-0.7469 v -1.49714 l 0.996961,1.12198 1.122019,0.25007 c 0.08315,0 0.166977,-0.3314 0.250129,-0.99696 0.08315,-0.58213 0.166977,-1.24896 0.250129,-1.9974 0.166305,-0.74844 0.288513,-1.45372 0.371665,-2.11901 0.08315,-0.74844 0.125031,-1.20581 0.125031,-1.37211 l 0.125031,-3.74468 0.250129,-0.12503 c 0.08315,-0.33275 0.08315,-0.83193 0,-1.49722 0,-0.74844 0.209461,-1.24426 0.62529,-1.49371 l 0.121603,-2.4976 c 0,-0.0834 0.293285,-0.54046 0.875378,-1.37211 0.582134,-0.8316 0.87191,-1.495 0.87191,-1.99398 0,-0.16604 -0.04168,-0.29174 -0.125031,-0.37509 -0.08315,-0.0834 -0.125031,-0.20906 -0.125031,-0.3751 0,-0.16603 0.08376,-0.33005 0.250129,-0.49676 0.249457,-0.24939 0.375161,-0.5008 0.375161,-0.75039 0,-0.0833 -0.04168,-0.16671 -0.125031,-0.25006 l 5.238403,-5.11337 c 0.415829,-0.41609 0.667168,-0.74749 0.750327,-0.99695 0.166305,-0.33274 0.539919,-0.50012 1.122019,-0.50012 h 0.250129 l 1.372129,-1.24702 0.125031,0.75032 c 0,0.66549 0.08033,1.41245 0.246633,2.24404 0.249457,0.74844 0.417039,1.6213 0.500192,2.6192 v 0.62515 c 0.08315,0.58214 0.456766,1.16171 1.122019,1.74385 0.748431,0.58213 1.163917,1.20709 1.247077,1.87237 0,0.16604 -0.04168,0.37577 -0.125031,0.62516 -0.08315,0.16603 -0.125031,0.3724 -0.125031,0.62179 l 0.125031,0.25006 0.37516,-0.37509 v 0.25006 c 0,0.16604 -0.125703,0.37577 -0.37516,0.62516 h 0.125031 c 0,-0.0834 0.04168,-0.12503 0.125031,-0.12503 h 0.37516 l 0.87191,2.49416 v 0.6218 l 0.250129,0.12503 -0.125031,0.75032 c 0,0.0833 0.04168,0.28905 0.125031,0.62179 0.166305,0.33275 0.333887,0.70623 0.500191,1.12199 l 0.496763,1.00045 c 0.166305,0.33274 0.292008,0.49676 0.375161,0.49676 -0.08315,-0.16603 -0.125031,-0.41408 -0.125031,-0.74689 0,-0.66549 0.251406,-1.16454 0.750327,-1.49715 l -0.37516,-0.50012 c 0,0.58213 -0.125704,0.87542 -0.375161,0.87542 l -0.37516,-0.25006 0.250129,-0.25007 v -0.87192 H 86.39201 l -0.371665,-0.50012 0.996961,-0.50013 h -0.500191 l 0.250129,-0.62179 c 0.166305,0.24939 0.333887,0.41677 0.500192,0.50012 0.166304,0 0.250129,0.16402 0.250129,0.49677 0,0.0833 -0.08376,0.12503 -0.250129,0.12503 -0.08315,0 -0.125031,0.0403 -0.125031,0.12503 0.166304,0.0834 0.333886,0.25073 0.500191,0.50012 0.166305,0.24939 0.246634,0.62314 0.246634,1.12199 0,0.16603 -0.04168,0.25006 -0.125031,0.25006 0.08315,0 0.125031,0.16402 0.125031,0.49676 0,0.16604 -0.164087,0.45979 -0.496763,0.87535 -0.33261,0.33275 -0.500259,0.66415 -0.500259,0.99696 l 0.125031,0.50012 c 0.08315,-0.49878 0.208856,-0.83414 0.37516,-1.00045 v 0.3751 0.25006 c 0,0.16603 -0.04168,0.29174 -0.125031,0.37509 v 0.2467 l -0.125031,1.24708 0.201462,-0.13175 -0.166776,0.60768 -1.122019,2.49417 c 0,2.41162 -0.247911,4.48901 -0.746852,6.23535 -0.498981,1.74633 -0.914433,3.61776 -1.24707,5.61355 l 0.746852,-0.12503 -0.125031,0.50013 c 0,0.16603 -0.08382,0.41408 -0.250129,0.74689 -0.166305,0.24939 -0.372337,0.58482 -0.621794,1.00045 l -0.750334,0.99695 c -0.166305,0.24939 -0.288513,0.41677 -0.371665,0.50013 v 0.49676 l 0.371665,0.62516 -0.496763,0.49676 c -0.33261,0.33274 -0.500191,0.62583 -0.500191,0.87542 l 0.250129,1.49714 -0.375161,1.12206 c -0.08315,0.49878 -0.125031,0.9144 -0.125031,1.24708 v 0.12503 l -0.496763,1.62225 c -0.08315,0.24938 -0.208855,0.74877 -0.37516,1.49714 -0.08315,0.66549 -0.125031,1.12266 -0.125031,1.37218 v 1.12199 l -0.621794,0.99695 v 0.50013 l -0.500191,0.99695 c -0.08315,0.0833 -0.125031,0.25074 -0.125031,0.50012 v 0.87193 c 0,0.16603 -0.04168,0.3724 -0.125031,0.62179 -0.08315,0.16604 -0.166977,0.37577 -0.25013,0.62516 l -0.250129,0.87192 c 0.166305,0.16604 0.292008,0.70743 0.37516,1.62224 0.08315,0.83153 0.250735,1.37272 0.500192,1.62218 l 2.244038,0.50013 2.122455,0.87192 h 0.621794 c -0.08315,-0.0834 -0.166977,-0.25074 -0.250129,-0.50013 v -0.62179 -0.12503 c 0.08315,-0.0833 0.125031,-0.16671 0.125031,-0.25006 l 1.000436,-0.6218 0.371665,0.49677 0.37516,1.62224 h 1.747289 l -0.500191,-0.62515 1.122019,-1.24709 0.37516,-1.37211 0.871903,-0.12503 0.500258,-0.6218 -0.250129,-0.87185 0.62529,-1.87238 -0.500192,-0.50012 v -1.49721 l -0.250129,-0.37174 -1.122019,0.6218 0.250129,-0.49677 -0.125031,-0.37509 0.500192,-0.62515 0.746852,-0.12503 0.500191,-2.86933 v -0.6218 c 0.08315,-0.24939 0.166977,-0.58146 0.250129,-0.99695 l 0.246634,-2.12244 0.62529,-0.87192 c 0,-0.4161 0.04168,-0.83132 0.125031,-1.24708 0.08315,-0.4161 0.125031,-0.78938 0.125031,-1.12206 v -0.50012 -0.25006 c 0,-0.33275 0.04168,-0.70623 0.125031,-1.12199 0.08315,-0.49878 0.125031,-0.87253 0.125031,-1.12205 l 0.496763,-0.62515 0.750327,-1.99398 -0.0484,-0.95871 1.632656,4.35256 c 0.166305,0.74844 0.497973,1.70163 0.996962,2.86583 0.498981,1.16427 0.91444,1.91493 1.247076,2.24754 l 0.375161,0.74682 0.996968,1.12206 c 0.275807,-0.11025 0.476596,-0.21982 0.64263,-0.33006 l 0.767697,2.30306 c 0.16631,0.49878 0.28852,0.99823 0.37167,1.49721 0.1663,0.4161 0.33389,0.70555 0.50019,0.87186 0.41584,0.49878 1.16298,1.04018 2.24406,1.62224 1.08106,0.49878 1.87361,0.74689 2.37256,0.74689 -0.0832,0 6.3e-4,-0.084 0.25013,-0.25006 0.33261,-0.24939 0.70622,-0.49743 1.12201,-0.74682 0.41583,-0.24939 0.87318,-0.5008 1.37213,-0.75039 0.49898,-0.33275 0.95633,-0.62247 1.37213,-0.87186 l 1.74382,-2.74429 c 0.58213,-0.66549 1.08138,-1.37051 1.49718,-2.11894 l 1.24708,-2.49767 c 0.58213,-1.41365 1.12328,-2.32846 1.62223,-2.74423 0.49898,-0.49878 0.99823,-1.4521 1.49718,-2.86583 l 3.61964,-6.36388 c 0.16631,0.66549 0.28852,1.374 0.37167,2.12244 0.0832,0.74844 0.12503,1.57942 0.12503,2.49417 0,1.08105 -0.0417,2.20182 -0.12503,3.36602 -0.0832,1.08105 -0.12503,2.20532 -0.12503,3.36952 l 0.50019,0.12503 -0.25013,1.74728 v 1.61874 5.1168 c 0,1.41372 0.0417,2.86617 0.12503,4.36304 0.0831,1.49688 0.25073,2.83061 0.50019,3.99481 l -1.24707,2.49417 1.24707,5.23839 1.37213,1.99391 1.62224,0.75032 0.24663,0.50013 c 0,-0.33275 0.0838,-0.45845 0.25013,-0.37509 0.1663,0.0833 0.37577,-6.1e-4 0.62529,-0.25007 l 4.24143,0.50013 0.49677,-0.12503 v -0.25007 l 0.50019,-0.37509 c 0.41576,-0.16603 0.83127,-0.3724 1.24707,-0.62179 0.49898,-0.16604 0.91444,-0.37577 1.24708,-0.62516 0.41576,-0.16603 0.66716,-0.25006 0.75032,-0.25006 l 0.24664,-0.37173 c 0.0831,-0.24939 0.20885,-0.45912 0.37516,-0.62516 l -0.6218,-7.36083 0.99696,-0.62179 v -0.50013 c -0.1663,0 -0.37583,-0.0403 -0.62528,-0.12503 -0.16631,-0.0833 -0.28852,-0.12503 -0.37167,-0.12503 l 0.49676,-1.12205 -0.25013,-0.6218 -0.87191,0.12504 0.5002,-0.62516 c 0.24945,-0.24939 0.45548,-0.58146 0.62179,-0.99695 l -1.7473,-2.86933 v -1.12205 c 0.0832,-0.49878 0.20886,-0.83408 0.37516,-1.00039 l 0.75033,-2.36913 -0.25013,-0.50013 c -0.0831,-0.0833 -0.20885,-0.12167 -0.37516,-0.12167 h -0.62179 l -0.12503,-0.50012 0.37166,-0.75032 -0.12503,-0.6218 -0.99696,0.3751 0.37516,-0.75032 c 0.16631,-0.66549 0.25013,-1.0389 0.25013,-1.12206 l 0.74685,-2.119 c -0.0831,-0.16604 -0.20885,-0.29174 -0.37516,-0.3751 -0.1663,-0.0834 -0.24663,-0.20905 -0.24663,-0.37509 l 0.12503,-0.25006 0.24663,-0.87192 -0.62179,0.25006 -0.12503,-0.50013 0.74685,-0.50012 v -0.87192 h -1.12202 l 0.25013,-1.87238 -0.12503,-0.37173 c 0,-0.49878 0.0417,-0.87253 0.12503,-1.12198 l 0.62529,-1.25058 -0.25013,-2.36907 v -4.73821 l 0.49676,-3.86978 c -0.0831,-0.24939 -0.28918,-0.91279 -0.62179,-1.9939 -0.24946,-1.08105 -0.37516,-1.74788 -0.37516,-1.99741 l -0.37516,-1.24708 c -0.0832,-0.33275 -0.16348,-0.62247 -0.24664,-0.87186 -0.0831,-0.33274 -0.12503,-0.58415 -0.12503,-0.75032 l 0.24664,-1.12205 0.25013,-0.25006 -0.37167,-0.87186 0.37167,-0.50012 c 0,-0.49878 -0.49925,-0.99474 -1.49719,-1.49372 -0.99791,-0.49878 -1.82887,-0.95629 -2.49415,-1.37212 l -1.99392,0.24671 -1.00044,-0.12504 c -0.0832,0.0834 -0.12503,0.20906 -0.12503,0.3751 0,0.0833 -0.0383,0.16671 -0.1216,0.25006 l -0.37516,0.25006 c -0.24946,0 -0.45898,0.16402 -0.62529,0.49676 -0.0832,0.24939 -0.33106,0.3751 -0.74685,0.3751 h -0.37516 c -0.0832,-0.0834 -0.16698,-0.12503 -0.25013,-0.12503 -0.99791,0.16603 -1.91267,0.62381 -2.74426,1.37211 -0.74842,0.66549 -1.12201,1.45782 -1.12201,2.37257 0,0.16603 0.0417,0.2467 0.12503,0.2467 -0.66528,1.49687 -1.24833,2.74678 -1.74729,3.74468 -0.49898,0.99789 -0.99823,1.95458 -1.49718,2.86932 -0.41583,0.91475 -0.91507,1.9517 -1.49718,3.11596 -0.58214,1.1642 -1.32929,2.62014 -2.24404,4.36648 l -1.12202,2.24404 -0.25013,0.25006 c 0,0.0833 -0.0837,0.16671 -0.25013,0.25006 l -0.37166,0.37509 -0.87538,2.24404 c 0,0.83159 -0.37361,1.54037 -1.12202,2.1225 -0.3439,0.25813 -0.65029,0.55054 -0.92749,0.87536 -0.0571,-0.0753 -0.19386,-0.31191 -0.23272,-0.3509 v -1.24708 l -0.37166,-0.75032 c -0.24946,-0.4161 -0.54274,-0.91508 -0.87539,-1.49722 -0.33261,-0.58213 -0.66434,-1.12326 -0.99696,-1.62224 l -0.50019,-0.99695 -0.74686,-2.86933 c -0.1663,-0.0834 -0.29201,-0.41475 -0.37516,-0.99696 -0.0832,-0.58213 -0.20886,-1.24896 -0.37517,-1.9974 -0.1663,-0.66549 -0.45609,-1.3705 -0.87191,-2.11894 -0.24946,-0.49878 -0.62294,-0.93551 -1.0595,-1.34086 -0.006,-0.14452 -0.0276,-0.28434 -0.0276,-0.43088 l -0.31956,0.10755 c -0.0323,-0.0269 -0.0538,-0.0538 -0.0868,-0.08 -0.001,-10e-4 -0.002,-0.002 -0.004,-0.004 l 0.25012,-0.25006 -0.25012,-0.49676 c -0.41577,-0.83159 -0.663677,-1.74634 -0.746857,-2.74423 -0.0831,-0.9979 -0.376435,-1.87076 -0.875383,-2.6192 l -0.371665,-0.50012 -0.125031,-1.37212 c -0.415829,-1.58003 -1.082654,-2.99402 -1.997404,-4.24144 -0.91475,-1.24735 -1.372128,-2.20404 -1.372128,-2.86933 -0.08315,-0.0833 -0.208856,-0.37308 -0.375161,-0.87186 -0.08315,-0.58213 -0.20536,-1.1652 -0.371664,-1.74734 -0.08315,-0.58213 -0.208856,-1.08138 -0.375161,-1.49714 -0.166304,-0.49878 -0.375765,-0.7469 -0.625289,-0.7469 -0.166305,0 -0.288513,0.24805 -0.371665,0.7469 -0.08315,0.41542 -0.125031,0.70904 -0.125031,0.87535 l 0.250129,0.49676 v 0.75032 c 0,0.66549 -0.20946,1.0389 -0.625289,1.12205 h -0.25013 c 0,-0.24938 -0.08376,-0.50079 -0.250129,-0.75032 -0.08315,-0.24939 -0.163481,-0.45575 -0.246634,-0.62179 l -0.250129,-0.87186 c -0.249457,-0.0833 -0.37516,-0.1667 -0.37516,-0.25006 0.08315,-0.16603 0.041,-0.25006 -0.125031,-0.25006 0.166305,0 0.250129,-0.20973 0.250129,-0.62515 0,-0.66549 -0.167582,-1.08072 -0.500191,-1.24702 -0.249457,-0.16604 -0.413611,-0.58214 -0.496763,-1.24709 -0.08315,-0.0833 -0.041,-0.12503 0.125031,-0.12503 0.249457,0 0.455489,-0.084 0.621794,-0.25006 l -0.125031,-0.74689 c 0,-0.41543 -0.08376,-0.7475 -0.250129,-0.99695 -0.08315,-0.24939 -0.205361,-0.58483 -0.371665,-1.00045 0.08315,-0.66549 0.125031,-1.28675 0.125031,-1.86888 0.08315,-0.58214 0.331063,-0.99756 0.746852,-1.24702 l -0.125031,-1.12205 c 0,-0.49878 -0.164087,-0.83408 -0.496763,-1.00045 -0.249457,-0.16604 -0.458918,-0.45576 -0.62529,-0.87186 1.496863,-1.33057 2.621094,-2.37102 3.369526,-3.11945 l 1.868871,-1.86888 c 0.498981,-0.41543 0.872541,-0.70905 1.122019,-0.87535 0.249457,-0.24939 0.58462,-0.53912 1.000436,-0.87193 l 1.372128,-1.12205 c -0.166305,0 0.249188,-0.29308 1.247081,-0.87535 1.081067,-0.66549 1.870137,-1.32869 2.369087,-1.99391 l 1.12203,-1.37211 v -0.50013 c 0,-0.74844 -0.33168,-1.70506 -0.99697,-2.86933 -0.6653,-1.1642 -1.33214,-1.74727 -1.99741,-1.74727 -0.1663,0 -0.288507,0.0403 -0.371667,0.12503 -0.0832,0.0834 -0.20885,0.12503 -0.37516,0.12503 -0.249453,0 -0.458981,-0.12234 -0.625286,-0.37173 -0.166304,-0.24939 -0.288512,-0.37509 -0.371665,-0.37509 l -0.750327,0.12503 c -0.166305,0 -0.250129,-0.0403 -0.250129,-0.12503 0,-0.16604 -0.08033,-0.25007 -0.246634,-0.25007 -0.249457,0 -0.542742,0.16738 -0.875385,0.50013 -0.33261,0.33274 -0.496763,0.70622 -0.496763,1.12205 0,0.0833 0.03832,0.16671 0.121603,0.25006 l -1.618762,1.61882 h 0.496763 l -0.250129,0.25006 -0.996962,1.00045 c -0.415829,0.4161 -0.705591,0.66347 -0.871909,0.74683 l -1.247077,1.24708 0.371664,0.25006 c -1.496863,1.24735 -2.743308,2.12022 -3.741217,2.6192 -0.91475,0.4161 -1.497818,0.70562 -1.747295,0.87192 -1.413697,1.49688 -2.702041,2.82712 -3.866268,3.99132 -1.081068,1.1642 -2.037724,1.9568 -2.869314,2.37256 l 0.125031,0.25006 h -0.371665 c -0.166305,-0.0833 -0.333887,-0.12503 -0.500192,-0.12503 -0.415829,0 -0.915065,0.28972 -1.497179,0.87192 l -0.125031,0.25007 -1.122019,1.12198 -0.996961,1.24709 0.246634,-0.12504 c 0,0.33275 -0.164087,0.66415 -0.496763,0.99696 l -2.369089,1.25051 0.496763,-0.37509 c 0,-0.33275 0.04168,-0.62583 0.125031,-0.87535 0.08315,-0.33275 0.125031,-0.66415 0.125031,-0.99696 l 0.125031,-0.49676 c 0,-0.33275 -0.08376,-0.50013 -0.25013,-0.50013 h -0.125031 l -0.746852,0.3751 c 0,-0.74844 0.28979,-1.37339 0.871904,-1.87238 l 0.37516,-5.36342 1.622237,-3.11946 -1.24707,0.37509 v -0.99695 c 0.249457,-0.24939 0.497368,-0.70683 0.746852,-1.37212 0.332609,-0.74843 0.58052,-1.49909 0.746852,-2.24753 0.249457,-0.74837 0.458985,-1.41177 0.625289,-1.99391 0.166305,-0.66549 0.25013,-1.08078 0.25013,-1.24708 v -0.62516 c 0,-0.33274 -0.08376,-0.58079 -0.25013,-0.74689 -0.166304,-0.24939 -0.292007,-0.5008 -0.37516,-0.75032 l -1.497179,-1.37211 c -0.249457,-0.4161 -0.748754,-0.8732 -1.497186,-1.37212 -0.748432,-0.58213 -1.286126,-0.87192 -1.618762,-0.87192 z m 0.746852,20.08166 0.250129,1.87238 c -0.08315,0.91474 -0.208855,1.91331 -0.37516,2.99435 -0.08315,1.08105 -0.20536,2.07612 -0.371665,2.99087 l -0.750327,-0.12167 0.125031,-0.75032 -0.125031,-0.99702 c 0,-0.16604 0.04168,-0.53979 0.125031,-1.12199 l 0.250129,-1.9974 c 0.166305,-0.74844 0.292008,-1.3734 0.37516,-1.87238 0.166305,-0.58213 0.330392,-0.9138 0.496764,-0.99695 z m 1.622237,8.85805 -0.37516,7.48243 c -0.166305,-0.16603 -0.372337,-0.28838 -0.621794,-0.37173 -0.166305,-0.16604 -0.250129,-0.33409 -0.250129,-0.50012 0,-0.0834 0.04168,-0.37308 0.125031,-0.87186 0.08315,-0.58213 0.166977,-1.20709 0.250129,-1.87237 0.166305,-0.74844 0.330458,-1.45715 0.496763,-2.12244 0.166305,-0.74844 0.292008,-1.32802 0.37516,-1.74385 z m -1.997397,2.86933 -0.246634,1.37211 c -0.08315,0.58213 -0.292613,1.61908 -0.62529,3.11596 -0.332609,1.49688 -0.706223,3.07845 -1.122019,4.74163 -0.332609,1.66319 -0.706223,3.24133 -1.122019,4.73821 -0.332609,1.49688 -0.584015,2.53732 -0.750327,3.11939 l 2.372565,-14.34308 z m 17.090799,0 c 0.33261,0 0.500192,0.20569 0.500192,0.62179 l 0.125031,2.36907 H 87.14219 c 0,-0.16604 -0.04168,-0.49811 -0.125032,-0.99696 -0.08315,-0.49878 -0.166976,-0.78877 -0.250129,-0.87192 L 86.5169,143.83149 Z m -0.625289,0.74682 v 1.12205 h -0.621794 c 0,-0.49878 0.205965,-0.87253 0.621794,-1.12205 z m 0.37516,1.9974 v 1.12206 h 0.250129 l 0.125032,0.74682 c -0.415762,0 -0.667169,-0.0403 -0.750335,-0.12503 v -0.49676 -0.50013 z m 0.750328,0.7469 c 0.166304,0.16603 0.372337,0.33408 0.621794,0.50012 0.332609,0.0833 0.500191,0.28905 0.500191,0.62179 v 1.12206 l 0.37516,0.75032 -0.250129,0.25006 c 0.332609,0 0.622466,0.2057 0.87191,0.62179 l -0.500191,0.62516 0.500191,-0.12503 v 0.62179 c 0,0.94076 0.202268,1.81483 0.580117,2.62962 -0.148693,0.26351 -0.307738,0.57743 -0.479353,0.95528 -0.04168,0.0202 -0.05579,0.0134 -0.100764,0.0336 -0.249457,0.0833 -0.45549,0.12503 -0.621794,0.12503 h -0.375161 l 0.125031,-0.25006 -0.625289,0.12503 c 0,-0.4161 0.08382,-0.62516 0.250129,-0.62516 0.249457,-0.0834 0.497368,-0.12503 0.746852,-0.12503 l 0.62529,0.37509 -0.125031,-0.25006 c 0,-0.0834 -0.08376,-0.12503 -0.25013,-0.12503 -0.08315,-0.0833 -0.166976,-0.20569 -0.250129,-0.37173 -0.08315,0.0834 -0.247239,0.12503 -0.496763,0.12503 -0.249457,0 -0.37516,-0.0403 -0.37516,-0.12503 0,-0.4161 0.125703,-0.62516 0.37516,-0.62516 0.249457,-0.0833 0.37516,-0.20905 0.37516,-0.37509 l -0.250129,-0.37173 -0.37516,0.37173 -0.500191,-0.12503 -0.371665,0.87542 -0.25013,-1.12205 h 0.621795 c 0,-0.24939 -0.08033,-0.54248 -0.246634,-0.87536 -0.166305,-0.33274 -0.250129,-0.66414 -0.250129,-0.99695 l 0.125031,-0.74689 h -0.375161 v -0.87535 -0.6218 c 0.166305,0 0.25013,0.0403 0.25013,0.12503 0,0.0834 0.04168,0.12167 0.125031,0.12167 l 0.125031,0.62516 0.246633,-0.50013 c 0,-0.0833 -0.122207,-0.41475 -0.371664,-0.99695 -0.166305,-0.66549 -0.25013,-1.08078 -0.25013,-1.24708 z m -2.122456,1.37211 v 0.75032 h 0.37516 c 0.08315,0.0834 0.125031,0.16335 0.125031,0.2467 0,0.0834 -0.125703,0.12503 -0.37516,0.12503 l -0.37516,-0.12503 v -0.49676 c 0,-0.16604 0.04168,-0.29174 0.125031,-0.37509 z m 0.125031,1.62225 c 0.08315,0 0.166977,0.0403 0.250129,0.12503 h 0.25013 v 0.99695 c -0.33261,-0.49878 -0.584016,-0.7887 -0.750328,-0.87186 z m 5.863673,0.87192 0.496763,0.62515 0.500191,1.86888 c 0.05042,0.15058 0.07199,0.3314 0.114612,0.49004 l -0.781592,0.0934 c -0.110713,-0.36904 -0.219275,-0.7481 -0.329988,-1.08031 -0.166304,-0.49878 -0.250129,-0.83065 -0.250129,-0.99702 0,-0.16604 0.04168,-0.33409 0.125031,-0.50012 0.08315,-0.16604 0.125031,-0.33409 0.125031,-0.50013 z m -4.741661,0.62515 c 0,0.16671 -0.04168,0.37241 -0.125031,0.6218 -0.08315,0.24939 -0.20536,0.41677 -0.371664,0.50012 l 0.371664,0.12503 0.125031,1.37212 0.500192,-0.3751 c 0,0.24939 -0.08383,0.5008 -0.25013,0.75032 -0.08315,0.24939 -0.250734,0.41341 -0.500191,0.49677 l 0.250129,-0.37173 -0.371664,-0.25007 c 0,0.4161 -0.209461,0.6218 -0.62529,0.6218 h -0.250129 c 0.498981,-0.49878 0.750327,-0.99823 0.750327,-1.49715 v -0.2467 c 0,-0.16603 -0.167582,-0.20838 -0.500191,-0.12503 -0.249457,0 -0.375161,-0.084 -0.375161,-0.25006 0,-0.4161 0.125704,-0.7475 0.375161,-0.99702 0.332609,-0.24939 0.664345,-0.3751 0.996961,-0.3751 z m 2.619205,4.49158 c 0.06252,0.0336 0.124964,0.14318 0.187547,0.25678 -0.242533,0.55928 -0.486949,1.12635 -0.729482,1.72993 -0.03496,-0.0726 -0.07993,-0.13579 -0.07993,-0.24334 0,-0.24939 0.04168,-0.53911 0.125031,-0.87192 0.166305,-0.4161 0.330458,-0.70562 0.496763,-0.87193 z m -2.831099,16.43774 -0.250129,3.74119 -0.87191,0.25006 c 0.08315,-0.49878 0.166977,-1.04011 0.25013,-1.62225 0.166304,-0.58213 0.330391,-1.11976 0.496763,-1.61874 z m 47.39921,4.98827 c -0.16631,0.0833 -0.24664,0.25073 -0.24664,0.50012 0,0.41543 0.0803,0.62516 0.24664,0.62516 0.33261,0 0.50019,-0.16738 0.50019,-0.50012 0,-0.4161 -0.16758,-0.62516 -0.50019,-0.62516 z m 0.12503,1.87237 c -0.0832,0 -0.12503,0.084 -0.12503,0.25007 0,0.33274 0.0417,0.50012 0.12503,0.50012 0.1663,0 0.25013,-0.1257 0.25013,-0.37509 v -0.12503 z m -43.407882,7.48593 0.37516,0.37174 -0.875385,0.62515 0.125031,-0.50012 z m 0.125031,1.49715 v 0.74682 c 0,0.91481 -0.28979,1.53977 -0.87191,1.87238 v -0.12503 c 0,-0.24939 0.03832,-0.62314 0.121603,-1.12206 0.166304,-0.49878 0.250129,-0.83407 0.250129,-1.00045 z"
         inkscape:export-filename="km-icon.png"
         inkscape:export-xdpi="96"
         inkscape:export-ydpi="96" />
      <path
         id="text186-3-4-9"
         style="font-size:18.5565px;font-family:'Roboto Condensed';-inkscape-font-specification:'Roboto Condensed, ';fill:#18184d;fill-opacity:1;stroke-width:10.3949"
         d="m 66.836267,108.26503 -2.247513,0.74683 h -4.241436 c 0,0.33274 -0.164086,1.04138 -0.496763,2.1225 -0.332609,1.08105 -0.500191,1.82821 -0.500191,2.24404 l -2.118987,8.23275 c -0.249457,0.41543 -0.584621,0.91508 -1.000436,1.49715 -0.415762,0.58213 -0.705592,1.49687 -0.87191,2.74429 0,0.24939 -0.167582,0.95474 -0.500191,2.11894 -0.33261,1.08112 -0.496764,1.74795 -0.496764,1.99741 l -0.500191,1.12205 v 2.74423 c 0,0.4161 -0.206032,1.41433 -0.621794,2.99436 -0.332609,1.58003 -0.500191,2.8265 -0.500191,3.74125 l -0.62529,2.24746 c 0,0.16604 -0.03832,0.58214 -0.121603,1.24709 0,0.58213 -0.04168,1.28741 -0.125031,2.119 -0.08315,0.74844 -0.166976,1.45715 -0.250129,2.12244 v 1.24708 l -0.250129,1.49715 c -0.166305,0.99796 -0.375765,1.95458 -0.62529,2.86933 -0.166304,0.91474 -0.246633,1.86793 -0.246633,2.86583 v 2.7443 c 0,0.41609 -0.125704,1.08259 -0.375161,1.9974 -0.249457,0.83159 -0.37516,1.53681 -0.37516,2.11894 0,0.83159 0.293285,1.28896 0.875385,1.37211 l 0.246634,0.50013 v 2.24404 l -0.246634,1.62224 c 0.415829,0.41543 1.121071,0.91501 2.11898,1.49715 1.081068,0.58213 1.747927,1.08138 1.997404,1.49721 0.166305,-0.24939 0.330392,-0.53911 0.496764,-0.87192 0.249457,-0.24939 0.542742,-0.3751 0.875385,-0.3751 0.249457,0.33275 0.497368,0.62247 0.746852,0.87193 0.332609,0.24939 0.622466,0.37509 0.87191,0.37509 v -0.25006 c 0,-0.66549 -0.122208,-1.12266 -0.371665,-1.37212 -0.249457,-0.16603 -0.458985,-0.3724 -0.62529,-0.62179 0.498982,0 0.872542,0.08 1.122019,0.2467 0.249457,0.16603 0.458985,0.33409 0.62529,0.50012 0.166305,0.24939 0.330391,0.45912 0.496763,0.62516 0.249457,0.24939 0.626567,0.45576 1.125494,0.62179 0.166305,-0.0833 0.288513,-0.16671 0.371665,-0.25006 0.166305,-0.0833 0.292008,-0.12503 0.37516,-0.12503 h 0.125031 c 0,0.0834 -0.04168,0.12503 -0.125031,0.12503 v 0.12503 c 0,0.0834 0.167582,0.20906 0.500192,0.37509 l 0.621794,-0.62515 c -0.166305,-0.16604 -0.25013,-0.33073 -0.25013,-0.49676 v -0.12503 c 0.08315,-0.66549 0.334559,-1.33212 0.750328,-1.99741 0.415761,-0.58213 0.705591,-0.9138 0.87191,-0.99695 l -0.371665,-0.7469 v -1.49714 l 0.996961,1.12198 1.122019,0.25007 c 0.08315,0 0.166977,-0.3314 0.250129,-0.99696 0.08315,-0.58213 0.166977,-1.24896 0.250129,-1.9974 0.166305,-0.74844 0.288513,-1.45372 0.371665,-2.11901 0.08315,-0.74844 0.125031,-1.20581 0.125031,-1.37211 l 0.125031,-3.74468 0.250129,-0.12503 c 0.08315,-0.33275 0.08315,-0.83193 0,-1.49722 0,-0.74844 0.209461,-1.24426 0.62529,-1.49371 l 0.121603,-2.4976 c 0,-0.0834 0.293285,-0.54046 0.875378,-1.37211 0.582134,-0.8316 0.87191,-1.495 0.87191,-1.99398 0,-0.16604 -0.04168,-0.29174 -0.125031,-0.37509 -0.08315,-0.0834 -0.125031,-0.20906 -0.125031,-0.3751 0,-0.16603 0.08376,-0.33005 0.250129,-0.49676 0.249457,-0.24939 0.375161,-0.5008 0.375161,-0.75039 0,-0.0833 -0.04168,-0.16671 -0.125031,-0.25006 l 5.238403,-5.11337 c 0.415829,-0.41609 0.667168,-0.74749 0.750327,-0.99695 0.166305,-0.33274 0.539919,-0.50012 1.122019,-0.50012 h 0.250129 l 1.372129,-1.24702 0.125031,0.75032 c 0,0.66549 0.08033,1.41245 0.246633,2.24404 0.249457,0.74844 0.417039,1.6213 0.500192,2.6192 v 0.62515 c 0.08315,0.58214 0.456766,1.16171 1.122019,1.74385 0.748431,0.58213 1.163917,1.20709 1.247077,1.87237 0,0.16604 -0.04168,0.37577 -0.125031,0.62516 -0.08315,0.16603 -0.125031,0.3724 -0.125031,0.62179 l 0.125031,0.25006 0.37516,-0.37509 v 0.25006 c 0,0.16604 -0.125703,0.37577 -0.37516,0.62516 h 0.125031 c 0,-0.0834 0.04168,-0.12503 0.125031,-0.12503 h 0.37516 l 0.87191,2.49416 v 0.6218 l 0.250129,0.12503 -0.125031,0.75032 c 0,0.0833 0.04168,0.28905 0.125031,0.62179 0.166305,0.33275 0.333887,0.70623 0.500191,1.12199 l 0.496763,1.00045 c 0.166305,0.33274 0.292008,0.49676 0.375161,0.49676 -0.08315,-0.16603 -0.125031,-0.41408 -0.125031,-0.74689 0,-0.66549 0.251406,-1.16454 0.750327,-1.49715 l -0.37516,-0.50012 c 0,0.58213 -0.125704,0.87542 -0.375161,0.87542 l -0.37516,-0.25006 0.250129,-0.25007 v -0.87192 H 83.67361 l -0.371665,-0.50012 0.996961,-0.50013 h -0.500191 l 0.250129,-0.62179 c 0.166305,0.24939 0.333887,0.41677 0.500192,0.50012 0.166304,0 0.250129,0.16402 0.250129,0.49677 0,0.0833 -0.08376,0.12503 -0.250129,0.12503 -0.08315,0 -0.125031,0.0403 -0.125031,0.12503 0.166304,0.0834 0.333886,0.25073 0.500191,0.50012 0.166305,0.24939 0.246634,0.62314 0.246634,1.12199 0,0.16603 -0.04168,0.25006 -0.125031,0.25006 0.08315,0 0.125031,0.16402 0.125031,0.49676 0,0.16604 -0.164087,0.45979 -0.496763,0.87535 -0.33261,0.33275 -0.500259,0.66415 -0.500259,0.99696 l 0.125031,0.50012 c 0.08315,-0.49878 0.208856,-0.83414 0.37516,-1.00045 v 0.3751 0.25006 c 0,0.16603 -0.04168,0.29174 -0.125031,0.37509 v 0.2467 l -0.125031,1.24708 0.201462,-0.13175 -0.166776,0.60768 -1.122019,2.49417 c 0,2.41162 -0.247911,4.48901 -0.746852,6.23535 -0.498981,1.74633 -0.914433,3.61776 -1.24707,5.61355 l 0.746852,-0.12503 -0.125031,0.50013 c 0,0.16603 -0.08382,0.41408 -0.250129,0.74689 -0.166305,0.24939 -0.372337,0.58482 -0.621794,1.00045 l -0.750334,0.99695 c -0.166305,0.24939 -0.288513,0.41677 -0.371665,0.50013 v 0.49676 l 0.371665,0.62516 -0.496763,0.49676 c -0.33261,0.33274 -0.500191,0.62583 -0.500191,0.87542 l 0.250129,1.49714 -0.375161,1.12206 c -0.08315,0.49878 -0.125031,0.9144 -0.125031,1.24708 v 0.12503 l -0.496763,1.62225 c -0.08315,0.24938 -0.208855,0.74877 -0.37516,1.49714 -0.08315,0.66549 -0.125031,1.12266 -0.125031,1.37218 v 1.12199 l -0.621794,0.99695 v 0.50013 l -0.500191,0.99695 c -0.08315,0.0833 -0.125031,0.25074 -0.125031,0.50012 v 0.87193 c 0,0.16603 -0.04168,0.3724 -0.125031,0.62179 -0.08315,0.16604 -0.166977,0.37577 -0.25013,0.62516 l -0.250129,0.87192 c 0.166305,0.16604 0.292008,0.70743 0.37516,1.62224 0.08315,0.83153 0.250735,1.37272 0.500192,1.62218 l 2.244038,0.50013 2.122455,0.87192 h 0.621794 c -0.08315,-0.0834 -0.166977,-0.25074 -0.250129,-0.50013 v -0.62179 -0.12503 c 0.08315,-0.0833 0.125031,-0.16671 0.125031,-0.25006 l 1.000436,-0.6218 0.371665,0.49677 0.37516,1.62224 h 1.747289 l -0.500191,-0.62515 1.122019,-1.24709 0.37516,-1.37211 0.871903,-0.12503 0.500258,-0.6218 -0.250129,-0.87185 0.62529,-1.87238 -0.500192,-0.50012 v -1.49721 l -0.250129,-0.37174 -1.122019,0.6218 0.250129,-0.49677 -0.125031,-0.37509 0.500192,-0.62515 0.746852,-0.12503 0.500191,-2.86933 v -0.6218 c 0.08315,-0.24939 0.166977,-0.58146 0.250129,-0.99695 l 0.246634,-2.12244 0.62529,-0.87192 c 0,-0.4161 0.04168,-0.83132 0.125031,-1.24708 0.08315,-0.4161 0.125031,-0.78938 0.125031,-1.12206 v -0.50012 -0.25006 c 0,-0.33275 0.04168,-0.70623 0.125031,-1.12199 0.08315,-0.49878 0.125031,-0.87253 0.125031,-1.12205 l 0.496763,-0.62515 0.750327,-1.99398 -0.0484,-0.95871 1.632656,4.35256 c 0.166305,0.74844 0.497973,1.70163 0.996962,2.86583 0.498981,1.16427 0.91444,1.91493 1.247076,2.24754 l 0.375161,0.74682 0.996968,1.12206 c 0.275807,-0.11025 0.476596,-0.21982 0.642632,-0.33006 l 0.767697,2.30306 c 0.166305,0.49878 0.288513,0.99823 0.371665,1.49721 0.166305,0.4161 0.333887,0.70555 0.500191,0.87186 0.415829,0.49878 1.16297,1.04018 2.244042,1.62224 1.08106,0.49878 1.87361,0.74689 2.37256,0.74689 -0.0832,0 6.3e-4,-0.084 0.25013,-0.25006 0.33261,-0.24939 0.70622,-0.49743 1.12201,-0.74682 0.41583,-0.24939 0.87318,-0.5008 1.37213,-0.75039 0.49898,-0.33275 0.95633,-0.62247 1.37213,-0.87186 l 1.74382,-2.74429 c 0.58213,-0.66549 1.08138,-1.37051 1.49718,-2.11894 l 1.24708,-2.49767 c 0.58213,-1.41365 1.12328,-2.32846 1.62223,-2.74423 0.49898,-0.49878 0.99823,-1.4521 1.49718,-2.86583 l 3.61964,-6.36388 c 0.16631,0.66549 0.28852,1.374 0.37167,2.12244 0.0832,0.74844 0.12503,1.57942 0.12503,2.49417 0,1.08105 -0.0417,2.20182 -0.12503,3.36602 -0.0832,1.08105 -0.12503,2.20532 -0.12503,3.36952 l 0.50019,0.12503 -0.25013,1.74728 v 1.61874 5.1168 c 0,1.41372 0.0417,2.86617 0.12503,4.36304 0.0831,1.49688 0.25073,2.83061 0.50019,3.99481 l -1.24707,2.49417 1.24707,5.23839 1.37213,1.99391 1.62224,0.75032 0.24663,0.50013 c 0,-0.33275 0.0838,-0.45845 0.25013,-0.37509 0.1663,0.0833 0.37577,-6.1e-4 0.62529,-0.25007 l 4.24143,0.50013 0.49677,-0.12503 v -0.25007 l 0.50019,-0.37509 c 0.41576,-0.16603 0.83127,-0.3724 1.24707,-0.62179 0.49898,-0.16604 0.91444,-0.37577 1.24708,-0.62516 0.41576,-0.16603 0.66716,-0.25006 0.75032,-0.25006 l 0.24664,-0.37173 c 0.0831,-0.24939 0.20885,-0.45912 0.37516,-0.62516 l -0.6218,-7.36083 0.99696,-0.62179 v -0.50013 c -0.1663,0 -0.37583,-0.0403 -0.62528,-0.12503 -0.16631,-0.0833 -0.28852,-0.12503 -0.37167,-0.12503 l 0.49676,-1.12205 -0.25013,-0.6218 -0.87191,0.12504 0.5002,-0.62516 c 0.24945,-0.24939 0.45548,-0.58146 0.62179,-0.99695 l -1.7473,-2.86933 v -1.12205 c 0.0832,-0.49878 0.20886,-0.83408 0.37516,-1.00039 l 0.75033,-2.36913 -0.25013,-0.50013 c -0.0831,-0.0833 -0.20885,-0.12167 -0.37516,-0.12167 h -0.62179 l -0.12503,-0.50012 0.37166,-0.75032 -0.12503,-0.6218 -0.99696,0.3751 0.37516,-0.75032 c 0.16631,-0.66549 0.25013,-1.0389 0.25013,-1.12206 l 0.74685,-2.119 c -0.0831,-0.16604 -0.20885,-0.29174 -0.37516,-0.3751 -0.1663,-0.0834 -0.24663,-0.20905 -0.24663,-0.37509 l 0.12503,-0.25006 0.24663,-0.87192 -0.62179,0.25006 -0.12503,-0.50013 0.74685,-0.50012 v -0.87192 h -1.12202 l 0.25013,-1.87238 -0.12503,-0.37173 c 0,-0.49878 0.0417,-0.87253 0.12503,-1.12198 l 0.62529,-1.25058 -0.25013,-2.36907 v -4.73821 l 0.49676,-3.86978 c -0.0831,-0.24939 -0.28918,-0.91279 -0.62179,-1.9939 -0.24946,-1.08105 -0.37516,-1.74788 -0.37516,-1.99741 l -0.37516,-1.24708 c -0.0832,-0.33275 -0.16348,-0.62247 -0.24664,-0.87186 -0.0831,-0.33274 -0.12503,-0.58415 -0.12503,-0.75032 l 0.24664,-1.12205 0.25013,-0.25006 -0.37167,-0.87186 0.37167,-0.50012 c 0,-0.49878 -0.49925,-0.99474 -1.49719,-1.49372 -0.99791,-0.49878 -1.82887,-0.95629 -2.49415,-1.37212 l -1.99392,0.24671 -1.00044,-0.12504 c -0.0832,0.0834 -0.12503,0.20906 -0.12503,0.3751 0,0.0833 -0.0383,0.16671 -0.1216,0.25006 l -0.37516,0.25006 c -0.24946,0 -0.45898,0.16402 -0.62529,0.49676 -0.0832,0.24939 -0.33106,0.3751 -0.74685,0.3751 h -0.37516 c -0.0832,-0.0834 -0.16698,-0.12503 -0.25013,-0.12503 -0.99791,0.16603 -1.91267,0.62381 -2.74426,1.37211 -0.74842,0.66549 -1.12201,1.45782 -1.12201,2.37257 0,0.16603 0.0417,0.2467 0.12503,0.2467 -0.66528,1.49687 -1.24833,2.74678 -1.74729,3.74468 -0.49898,0.99789 -0.99823,1.95458 -1.49718,2.86932 -0.41583,0.91475 -0.91507,1.9517 -1.49718,3.11596 -0.58214,1.1642 -1.32929,2.62014 -2.24404,4.36648 l -1.12202,2.24404 -0.25013,0.25006 c 0,0.0833 -0.0837,0.16671 -0.25013,0.25006 l -0.37166,0.37509 -0.87538,2.24404 c 0,0.83159 -0.37361,1.54037 -1.12202,2.1225 -0.3439,0.25813 -0.65029,0.55054 -0.92749,0.87536 -0.0571,-0.0753 -0.19386,-0.31191 -0.23272,-0.3509 v -1.24708 l -0.37166,-0.75032 c -0.24946,-0.4161 -0.54274,-0.91508 -0.87539,-1.49722 -0.33261,-0.58213 -0.66434,-1.12326 -0.99696,-1.62224 l -0.50019,-0.99695 -0.74686,-2.86933 c -0.1663,-0.0834 -0.29201,-0.41475 -0.37516,-0.99696 -0.0832,-0.58213 -0.20885,-1.24896 -0.37516,-1.9974 -0.166304,-0.66549 -0.456093,-1.3705 -0.871909,-2.11894 -0.249457,-0.49878 -0.622937,-0.93551 -1.05949,-1.34086 -0.0058,-0.14452 -0.02756,-0.28434 -0.02756,-0.43088 l -0.319568,0.10755 c -0.03227,-0.0269 -0.05378,-0.0538 -0.08685,-0.08 -0.0014,-0.001 -0.0021,-0.002 -0.0035,-0.004 l 0.250129,-0.25006 -0.250129,-0.49676 c -0.415762,-0.83159 -0.663673,-1.74634 -0.746852,-2.74423 -0.08315,-0.9979 -0.376437,-1.87076 -0.875385,-2.6192 l -0.371665,-0.50012 -0.125031,-1.37212 c -0.415829,-1.58003 -1.082654,-2.99402 -1.997404,-4.24144 -0.91475,-1.24735 -1.372128,-2.20404 -1.372128,-2.86933 -0.08315,-0.0833 -0.208856,-0.37308 -0.375161,-0.87186 -0.08315,-0.58213 -0.20536,-1.1652 -0.371664,-1.74734 -0.08315,-0.58213 -0.208856,-1.08138 -0.375161,-1.49714 -0.166304,-0.49878 -0.375765,-0.7469 -0.625289,-0.7469 -0.166305,0 -0.288513,0.24805 -0.371665,0.7469 -0.08315,0.41542 -0.125031,0.70904 -0.125031,0.87535 l 0.250129,0.49676 v 0.75032 c 0,0.66549 -0.20946,1.0389 -0.625289,1.12205 h -0.25013 c 0,-0.24938 -0.08376,-0.50079 -0.250129,-0.75032 -0.08315,-0.24939 -0.163481,-0.45575 -0.246634,-0.62179 l -0.250129,-0.87186 c -0.249457,-0.0833 -0.37516,-0.1667 -0.37516,-0.25006 0.08315,-0.16603 0.041,-0.25006 -0.125031,-0.25006 0.166305,0 0.250129,-0.20973 0.250129,-0.62515 0,-0.66549 -0.167582,-1.08072 -0.500191,-1.24702 -0.249457,-0.16604 -0.413611,-0.58214 -0.496763,-1.24709 -0.08315,-0.0833 -0.041,-0.12503 0.125031,-0.12503 0.249457,0 0.455489,-0.084 0.621794,-0.25006 l -0.125031,-0.74689 c 0,-0.41543 -0.08376,-0.7475 -0.250129,-0.99695 -0.08315,-0.24939 -0.205361,-0.58483 -0.371665,-1.00045 0.08315,-0.66549 0.125031,-1.28675 0.125031,-1.86888 0.08315,-0.58214 0.331063,-0.99756 0.746852,-1.24702 l -0.125031,-1.12205 c 0,-0.49878 -0.164087,-0.83408 -0.496763,-1.00045 -0.249457,-0.16604 -0.458918,-0.45576 -0.62529,-0.87186 1.496863,-1.33057 2.621094,-2.37102 3.369526,-3.11945 l 1.868871,-1.86888 c 0.498981,-0.41543 0.872541,-0.70905 1.122019,-0.87535 0.249457,-0.24939 0.58462,-0.53912 1.000436,-0.87193 l 1.372128,-1.12205 c -0.166305,0 0.249188,-0.29308 1.247077,-0.87535 1.081068,-0.66549 1.870135,-1.32869 2.369089,-1.99391 l 1.122016,-1.37211 v -0.50013 c 0,-0.74844 -0.33167,-1.70506 -0.996965,-2.86933 -0.665286,-1.1642 -1.332124,-1.74727 -1.997397,-1.74727 -0.166305,0 -0.288513,0.0403 -0.371665,0.12503 -0.08315,0.0834 -0.208855,0.12503 -0.37516,0.12503 -0.249457,0 -0.458985,-0.12234 -0.62529,-0.37173 -0.166304,-0.24939 -0.288512,-0.37509 -0.371665,-0.37509 l -0.750327,0.12503 c -0.166305,0 -0.250129,-0.0403 -0.250129,-0.12503 0,-0.16604 -0.08033,-0.25007 -0.246634,-0.25007 -0.249457,0 -0.542742,0.16738 -0.875385,0.50013 -0.33261,0.33274 -0.496763,0.70622 -0.496763,1.12205 0,0.0833 0.03832,0.16671 0.121603,0.25006 l -1.618762,1.61882 h 0.496763 l -0.250129,0.25006 -0.996962,1.00045 c -0.415829,0.4161 -0.705591,0.66347 -0.871909,0.74683 l -1.247077,1.24708 0.371664,0.25006 c -1.496863,1.24735 -2.743308,2.12022 -3.741217,2.6192 -0.91475,0.4161 -1.497818,0.70562 -1.747295,0.87192 -1.413697,1.49688 -2.702041,2.82712 -3.866268,3.99132 -1.081068,1.1642 -2.037724,1.9568 -2.869314,2.37256 l 0.125031,0.25006 h -0.371665 c -0.166305,-0.0833 -0.333887,-0.12503 -0.500192,-0.12503 -0.415829,0 -0.915065,0.28972 -1.497179,0.87192 l -0.125031,0.25007 -1.122019,1.12198 -0.996961,1.24709 0.246634,-0.12504 c 0,0.33275 -0.164087,0.66415 -0.496763,0.99696 l -2.369089,1.25051 0.496763,-0.37509 c 0,-0.33275 0.04168,-0.62583 0.125031,-0.87535 0.08315,-0.33275 0.125031,-0.66415 0.125031,-0.99696 l 0.125031,-0.49676 c 0,-0.33275 -0.08376,-0.50013 -0.25013,-0.50013 h -0.125031 l -0.746852,0.3751 c 0,-0.74844 0.28979,-1.37339 0.871904,-1.87238 l 0.37516,-5.36342 1.622237,-3.11946 -1.24707,0.37509 v -0.99695 c 0.249457,-0.24939 0.497368,-0.70683 0.746852,-1.37212 0.332609,-0.74843 0.58052,-1.49909 0.746852,-2.24753 0.249457,-0.74837 0.458985,-1.41177 0.625289,-1.99391 0.166305,-0.66549 0.25013,-1.08078 0.25013,-1.24708 v -0.62516 c 0,-0.33274 -0.08376,-0.58079 -0.25013,-0.74689 -0.166304,-0.24939 -0.292007,-0.5008 -0.37516,-0.75032 l -1.497179,-1.37211 c -0.249457,-0.4161 -0.748754,-0.8732 -1.497186,-1.37212 -0.748432,-0.58213 -1.286126,-0.87192 -1.618762,-0.87192 z m 0.746852,20.08166 0.250129,1.87238 c -0.08315,0.91474 -0.208855,1.91331 -0.37516,2.99435 -0.08315,1.08105 -0.20536,2.07612 -0.371665,2.99087 l -0.750327,-0.12167 0.125031,-0.75032 -0.125031,-0.99702 c 0,-0.16604 0.04168,-0.53979 0.125031,-1.12199 l 0.250129,-1.9974 c 0.166305,-0.74844 0.292008,-1.3734 0.37516,-1.87238 0.166305,-0.58213 0.330392,-0.9138 0.496764,-0.99695 z m 1.622237,8.85805 -0.37516,7.48243 c -0.166305,-0.16603 -0.372337,-0.28838 -0.621794,-0.37173 -0.166305,-0.16604 -0.250129,-0.33409 -0.250129,-0.50012 0,-0.0834 0.04168,-0.37308 0.125031,-0.87186 0.08315,-0.58213 0.166977,-1.20709 0.250129,-1.87237 0.166305,-0.74844 0.330458,-1.45715 0.496763,-2.12244 0.166305,-0.74844 0.292008,-1.32802 0.37516,-1.74385 z m -1.997397,2.86933 -0.246634,1.37211 c -0.08315,0.58213 -0.292613,1.61908 -0.62529,3.11596 -0.332609,1.49688 -0.706223,3.07845 -1.122019,4.74163 -0.332609,1.66319 -0.706223,3.24133 -1.122019,4.73821 -0.332609,1.49688 -0.584015,2.53732 -0.750327,3.11939 l 2.372565,-14.34308 z m 17.090799,0 c 0.33261,0 0.500192,0.20569 0.500192,0.62179 l 0.125031,2.36907 H 84.42379 c 0,-0.16604 -0.04168,-0.49811 -0.125032,-0.99696 -0.08315,-0.49878 -0.166976,-0.78877 -0.250129,-0.87192 L 83.7985,140.3207 Z m -0.625289,0.74682 v 1.12205 h -0.621794 c 0,-0.49878 0.205965,-0.87253 0.621794,-1.12205 z m 0.37516,1.9974 v 1.12206 h 0.250129 l 0.125032,0.74682 c -0.415762,0 -0.667169,-0.0403 -0.750335,-0.12503 v -0.49676 -0.50013 z m 0.750328,0.7469 c 0.166304,0.16603 0.372337,0.33408 0.621794,0.50012 0.332609,0.0833 0.500191,0.28905 0.500191,0.62179 v 1.12206 l 0.37516,0.75032 -0.250129,0.25006 c 0.332609,0 0.622466,0.2057 0.87191,0.62179 l -0.500191,0.62516 0.500191,-0.12503 v 0.62179 c 0,0.94076 0.202268,1.81483 0.580117,2.62962 -0.148693,0.26351 -0.307738,0.57743 -0.479353,0.95528 -0.04168,0.0202 -0.05579,0.0134 -0.100764,0.0336 -0.249457,0.0833 -0.45549,0.12503 -0.621794,0.12503 h -0.375161 l 0.125031,-0.25006 -0.625289,0.12503 c 0,-0.4161 0.08382,-0.62516 0.250129,-0.62516 0.249457,-0.0834 0.497368,-0.12503 0.746852,-0.12503 l 0.62529,0.37509 -0.125031,-0.25006 c 0,-0.0834 -0.08376,-0.12503 -0.25013,-0.12503 -0.08315,-0.0833 -0.166976,-0.20569 -0.250129,-0.37173 -0.08315,0.0834 -0.247239,0.12503 -0.496763,0.12503 -0.249457,0 -0.37516,-0.0403 -0.37516,-0.12503 0,-0.4161 0.125703,-0.62516 0.37516,-0.62516 0.249457,-0.0833 0.37516,-0.20905 0.37516,-0.37509 l -0.250129,-0.37173 -0.37516,0.37173 -0.500191,-0.12503 -0.371665,0.87542 -0.25013,-1.12205 h 0.621795 c 0,-0.24939 -0.08033,-0.54248 -0.246634,-0.87536 -0.166305,-0.33274 -0.250129,-0.66414 -0.250129,-0.99695 l 0.125031,-0.74689 h -0.375161 v -0.87535 -0.6218 c 0.166305,0 0.25013,0.0403 0.25013,0.12503 0,0.0834 0.04168,0.12167 0.125031,0.12167 l 0.125031,0.62516 0.246633,-0.50013 c 0,-0.0833 -0.122207,-0.41475 -0.371664,-0.99695 -0.166305,-0.66549 -0.25013,-1.08078 -0.25013,-1.24708 z m -2.122456,1.37211 v 0.75032 h 0.37516 c 0.08315,0.0834 0.125031,0.16335 0.125031,0.2467 0,0.0834 -0.125703,0.12503 -0.37516,0.12503 l -0.37516,-0.12503 v -0.49676 c 0,-0.16604 0.04168,-0.29174 0.125031,-0.37509 z m 0.125031,1.62225 c 0.08315,0 0.166977,0.0403 0.250129,0.12503 h 0.25013 v 0.99695 c -0.33261,-0.49878 -0.584016,-0.7887 -0.750328,-0.87186 z m 5.863673,0.87192 0.496763,0.62515 0.500191,1.86888 c 0.05042,0.15058 0.07199,0.3314 0.114612,0.49004 l -0.781592,0.0934 c -0.110713,-0.36904 -0.219275,-0.7481 -0.329988,-1.08031 -0.166304,-0.49878 -0.250129,-0.83065 -0.250129,-0.99702 0,-0.16604 0.04168,-0.33409 0.125031,-0.50012 0.08315,-0.16604 0.125031,-0.33409 0.125031,-0.50013 z m -4.741661,0.62515 c 0,0.16671 -0.04168,0.37241 -0.125031,0.6218 -0.08315,0.24939 -0.20536,0.41677 -0.371664,0.50012 l 0.371664,0.12503 0.125031,1.37212 0.500192,-0.3751 c 0,0.24939 -0.08383,0.5008 -0.25013,0.75032 -0.08315,0.24939 -0.250734,0.41341 -0.500191,0.49677 l 0.250129,-0.37173 -0.371664,-0.25007 c 0,0.4161 -0.209461,0.6218 -0.62529,0.6218 h -0.250129 c 0.498981,-0.49878 0.750327,-0.99823 0.750327,-1.49715 v -0.2467 c 0,-0.16603 -0.167582,-0.20838 -0.500191,-0.12503 -0.249457,0 -0.375161,-0.084 -0.375161,-0.25006 0,-0.4161 0.125704,-0.7475 0.375161,-0.99702 0.332609,-0.24939 0.664345,-0.3751 0.996961,-0.3751 z m 2.619205,4.49158 c 0.06252,0.0336 0.124964,0.14318 0.187547,0.25678 -0.242533,0.55928 -0.486949,1.12635 -0.729482,1.72993 -0.03496,-0.0726 -0.07993,-0.13579 -0.07993,-0.24334 0,-0.24939 0.04168,-0.53911 0.125031,-0.87192 0.166305,-0.4161 0.330458,-0.70562 0.496763,-0.87193 z m -2.831099,16.43774 -0.250129,3.74119 -0.87191,0.25006 c 0.08315,-0.49878 0.166977,-1.04011 0.25013,-1.62225 0.166304,-0.58213 0.330391,-1.11976 0.496763,-1.61874 z m 47.39919,4.98827 c -0.16631,0.0833 -0.24664,0.25073 -0.24664,0.50012 0,0.41543 0.0803,0.62516 0.24664,0.62516 0.33261,0 0.50019,-0.16738 0.50019,-0.50012 0,-0.4161 -0.16758,-0.62516 -0.50019,-0.62516 z m 0.12503,1.87237 c -0.0832,0 -0.12503,0.084 -0.12503,0.25007 0,0.33274 0.0417,0.50012 0.12503,0.50012 0.1663,0 0.25013,-0.1257 0.25013,-0.37509 v -0.12503 z m -43.407862,7.48593 0.37516,0.37174 -0.875385,0.62515 0.125031,-0.50012 z m 0.125031,1.49715 v 0.74682 c 0,0.91481 -0.28979,1.53977 -0.87191,1.87238 v -0.12503 c 0,-0.24939 0.03832,-0.62314 0.121603,-1.12206 0.166304,-0.49878 0.250129,-0.83407 0.250129,-1.00045 z"
         inkscape:export-filename="km-icon.png"
         inkscape:export-xdpi="96"
         inkscape:export-ydpi="96" />
    </g>
  </g>
</svg>
